# xmcd CD database file
#
# Track frame offsets:
#	150
#	13650
#	25023
#	47198
#	62440
#	74704
#	87850
#	107115
#	120490
#	135562
#
# Disc length: 1949 seconds
#
# Revision: 1
# Processed by: cddbd v1.5.2PL0 Copyright (c) Steve Scherf et al.
# Submitted via: CDex 1.50
#
DISCID=82079b0a
DTITLE=Witch Doctors, Les Witch Doctors - 14 heures par jour
DYEAR=2012
DGENRE=Blues
TTITLE0=Du sang dans la bouche
TTITLE1=Tout l'temps d'rentrer trop tard
TTITLE2=Pas besoin de reveil matin
TTITLE3=14 heures par jour
TTITLE4=Tu parles d'un witch doctor
TTITLE5=Les mirages
TTITLE6=Personne
TTITLE7=Dans l'temps
TTITLE8=Le prix du temps
TTITLE9=L'heure ou rien ne bouge
EXTD=YEAR: 2012
EXTT0=
EXTT1=
EXTT2=
EXTT3=
EXTT4=
EXTT5=
EXTT6=
EXTT7=
EXTT8=
EXTT9=
PLAYORDER=
